Coordinates
version=1
nRows=8
nColumns=40
inDegrees=yes

Units are S.I. units (second, meters, Newtons, ...)
If the header above contains a line with 'inDegrees', this indicates whether rotational values are in degrees (yes) or radians (no).

endheader
time	pelvis_tilt	pelvis_list	pelvis_rotation	pelvis_tx	pelvis_ty	pelvis_tz	hip_flexion_r	hip_adduction_r	hip_rotation_r	knee_angle_r	knee_angle_r_beta	ankle_angle_r	subtalar_angle_r	mtp_angle_r	hip_flexion_l	hip_adduction_l	hip_rotation_l	knee_angle_l	knee_angle_l_beta	ankle_angle_l	subtalar_angle_l	mtp_angle_l	lumbar_extension	lumbar_bending	lumbar_rotation	arm_flex_r	arm_add_r	arm_rot_r	elbow_flex_r	pro_sup_r	wrist_flex_r	wrist_dev_r	arm_flex_l	arm_add_l	arm_rot_l	elbow_flex_l	pro_sup_l	wrist_flex_l	wrist_dev_l
      3.10000000	    -89.97325307	     89.97085728	    -89.97326573	     -0.38012787	     -0.99999071	      1.07832499	     14.97479200	     29.98890924	     39.92470377	     17.55366376	      0.30636923	    -48.80689606	      1.74302902	      0.00000000	      1.09000089	    -22.40137412	    -39.95179611	     11.27888681	      0.19685371	    -35.25943001	    -13.58581102	      0.00000000	     -0.01914194	    -43.35955845	     89.83539278	      5.62865427	    -20.24505187	      6.22793797	     68.87174615	     79.86006543	      0.00000000	      0.00000000	     55.89472899	    -11.28648492	     12.11372902	     45.22087922	     63.85403163	      0.00000000	      0.00000000
      3.11000000	    -89.97885157	     89.97144606	    -89.97886279	     -0.38241123	     -0.99999132	      1.07862292	     12.88198450	     29.99056610	     39.91357217	     12.12368405	      0.21159820	    -48.90847260	      5.23686177	      0.00000000	      0.98195395	    -22.49630996	    -39.95189337	     11.41484587	      0.19922664	    -35.28832422	    -13.28794910	      0.00000000	      0.22778849	    -44.00911045	     89.84894589	      6.97228354	    -20.23223008	      6.81741755	     69.93179695	     79.55022091	      0.00000000	      0.00000000	     59.31167559	    -12.34179324	     14.64757286	     44.66787943	     60.13766128	      0.00000000	      0.00000000
      3.12000000	    -89.98253484	     89.97194728	    -89.98254596	     -0.38468719	     -0.99999189	      1.07830158	     10.87054423	     29.99208043	     39.90495421	      7.08275082	      0.12361732	    -48.95554768	      8.65690699	      0.00000000	      0.89504524	    -22.59739809	    -39.95210313	     11.59477384	      0.20236698	    -35.28599982	    -13.10006529	      0.00000000	      0.48790163	    -44.61993124	     89.85883261	      8.38287229	    -20.33468388	      7.57677983	     71.01787697	     79.58411744	      0.00000000	      0.00000000	     62.81860374	    -13.09086055	     16.38307483	     43.46020532	     60.03679156	      0.00000000	      0.00000000
      3.13000000	    -89.98516318	     89.97244148	    -89.98517460	     -0.38711762	     -0.99999241	      1.07754928	      8.99913689	     29.99340235	     39.90462054	      2.53027626	      0.04416165	    -48.96749496	     11.92136448	      0.00000000	      0.82230449	    -22.75806535	    -39.95233478	     11.81842202	      0.20627038	    -35.39703929	    -12.76226591	      0.00000000	      0.76679190	    -45.21350712	     89.86159723	      9.94485046	    -20.51233377	      8.66344127	     72.01075590	     78.95363899	      0.00000000	      0.00000000	     66.52297384	    -14.09368297	     19.81846503	     42.22881515	     55.28101296	      0.00000000	      0.00000000
      3.14000000	    -89.98664804	     89.97304973	    -89.98666168	     -0.38869814	     -0.99999295	      1.07710323	      8.00316799	     29.99500653	     39.90595208	      0.09786440	      0.00170806	    -47.04287724	     16.37540423	      0.00000000	      0.82521974	    -22.92169863	    -39.95277891	     12.10718597	      0.21131026	    -35.26700600	    -12.64332221	      0.00000000	      0.99675371	    -45.82200395	     89.86036814	     11.72939157	    -20.93344380	      9.95671231	     72.73730811	     79.07276211	      0.00000000	      0.00000000	     70.18141250	    -14.44277150	     21.67332305	     40.14989188	     55.17582112	      0.00000000	      0.00000000
      3.15000000	    -89.98753386	     89.97378420	    -89.98755095	     -0.38962631	     -0.99999347	      1.07718726	      7.96544478	     29.99635953	     39.89997836	      0.03147985	      0.00054943	    -42.09237922	     22.07434664	      0.00000000	      0.87576414	    -23.07598946	    -39.95281891	     12.38375794	      0.21613735	    -35.43719238	    -12.27759911	      0.00000000	      1.18371578	    -46.48671641	     89.84484696	     13.84903417	    -21.73106373	     12.11007694	     73.26972845	     77.23136163	      0.00000000	      0.00000000	     73.91461197	    -14.83678206	     24.95479503	     38.19604231	     50.89639559	      0.00000000	      0.00000000
      3.16000000	    -89.98825103	     89.97442798	    -89.98827126	     -0.39023349	     -0.99999393	      1.07733064	      7.93460726	     29.99716133	     39.89265653	      0.01840123	      0.00032116	    -37.69403609	     26.67371983	      0.00000000	      0.93885836	    -23.23039834	    -39.95308858	     12.64261930	      0.22065533	    -35.44291117	    -12.08316078	      0.00000000	      1.35895750	    -47.15387433	     89.82694853	     16.16006479	    -22.61519322	     14.29456734	     73.55708925	     77.29207706	      0.00000000	      0.00000000	     77.55798278	    -14.65040884	     26.56451266	     35.36220535	     50.76411000	      0.00000000	      0.00000000
      3.17000000	    -89.98902281	     89.97488953	    -89.98904481	     -0.39075367	     -0.99999433	      1.07747352	      7.90859217	     29.99769077	     39.88433530	      0.01283376	      0.00022399	    -34.06297692	     30.54544227	      0.00000000	      1.01754830	    -23.38016308	    -39.95338023	     12.92306996	      0.22555012	    -35.50301247	    -11.89807157	      0.00000000	      1.58005115	    -47.83049909	     89.75823554	     19.28939106	    -24.37844448	     19.27010723	     73.77701929	     71.68006723	      0.00000000	      0.00000000	     81.16972095	    -14.81605454	     30.07674014	     33.16489690	     46.11558521	      0.00000000	      0.00000000
